<?xml version="1.0" encoding="UTF-8"?>
<svg id="Layer_1" data-name="Layer 1" xmlns="http://www.w3.org/2000/svg" xmlns:xlink="http://www.w3.org/1999/xlink" viewBox="0 0 1600 512">
  <defs>
    <style>
      .cls-1 {
        fill: url(#linear-gradient-13);
      }

      .cls-2 {
        fill: url(#linear-gradient-2);
      }

      .cls-3 {
        fill: url(#linear-gradient-10);
      }

      .cls-4 {
        fill: url(#linear-gradient-12);
      }

      .cls-5 {
        fill: #fff;
      }

      .cls-6 {
        fill: url(#linear-gradient-4);
      }

      .cls-7 {
        fill: url(#linear-gradient-3);
      }

      .cls-8 {
        fill: url(#linear-gradient-5);
      }

      .cls-9 {
        fill: url(#linear-gradient-8);
      }

      .cls-10 {
        fill: url(#linear-gradient-7);
      }

      .cls-11 {
        fill: url(#linear-gradient-9);
      }

      .cls-12 {
        fill: url(#linear-gradient-11);
      }

      .cls-13 {
        fill: url(#linear-gradient-6);
      }

      .cls-14 {
        fill: url(#linear-gradient);
      }
    </style>
    <linearGradient id="linear-gradient" x1="109.45" y1="296.04" x2="303.45" y2="123.27" gradientTransform="translate(0 514) scale(1 -1)" gradientUnits="userSpaceOnUse">
      <stop offset="0" stop-color="#f8de4f"/>
      <stop offset=".05" stop-color="#f6d64e"/>
      <stop offset=".12" stop-color="#efc04c"/>
      <stop offset=".2" stop-color="#e6a149"/>
      <stop offset=".45" stop-color="#f17635"/>
      <stop offset=".47" stop-color="#e7743c"/>
      <stop offset=".76" stop-color="#3655b9"/>
      <stop offset="1" stop-color="#3655b9" stop-opacity="0"/>
    </linearGradient>
    <linearGradient id="linear-gradient-2" x1="107.98" y1="201.73" x2="335.11" y2="201.73" gradientTransform="translate(0 514) scale(1 -1)" gradientUnits="userSpaceOnUse">
      <stop offset="0" stop-color="#3655b9"/>
      <stop offset=".48" stop-color="#e7743c" stop-opacity=".62"/>
      <stop offset=".51" stop-color="#f17635" stop-opacity=".6"/>
      <stop offset=".74" stop-color="#e6a149" stop-opacity="0"/>
      <stop offset=".84" stop-color="#efc04c" stop-opacity="0"/>
      <stop offset=".94" stop-color="#f6d64e" stop-opacity="0"/>
      <stop offset="1" stop-color="#f8de4f" stop-opacity="0"/>
    </linearGradient>
    <linearGradient id="linear-gradient-3" x1="160.77" y1="286.99" x2="353.41" y2="286.99" gradientTransform="translate(0 514) scale(1 -1)" gradientUnits="userSpaceOnUse">
      <stop offset="0" stop-color="#f8de4f"/>
      <stop offset=".05" stop-color="#f6d64e"/>
      <stop offset=".12" stop-color="#efc04c"/>
      <stop offset=".2" stop-color="#e6a149"/>
      <stop offset=".45" stop-color="#f17635"/>
      <stop offset=".46" stop-color="#e7743c"/>
      <stop offset=".68" stop-color="#3655b9"/>
      <stop offset=".95" stop-color="#3655b9" stop-opacity="0"/>
    </linearGradient>
    <linearGradient id="linear-gradient-4" x1="159.77" y1="286.45" x2="354.56" y2="286.45" gradientTransform="translate(0 514) scale(1 -1)" gradientUnits="userSpaceOnUse">
      <stop offset="0" stop-color="#3655b9"/>
      <stop offset=".48" stop-color="#e7743c"/>
      <stop offset=".51" stop-color="#f17635"/>
      <stop offset=".74" stop-color="#e6a149" stop-opacity="0"/>
      <stop offset=".84" stop-color="#efc04c" stop-opacity="0"/>
      <stop offset=".94" stop-color="#f6d64e" stop-opacity="0"/>
      <stop offset="1" stop-color="#f8de4f" stop-opacity="0"/>
    </linearGradient>
    <linearGradient id="linear-gradient-5" x1="67.88" y1="245.23" x2="482.86" y2="262.29" gradientTransform="translate(0 514) scale(1 -1)" gradientUnits="userSpaceOnUse">
      <stop offset="0" stop-color="#000" stop-opacity="0"/>
      <stop offset=".03" stop-color="#030407" stop-opacity=".11"/>
      <stop offset=".07" stop-color="#0a0d1a" stop-opacity=".28"/>
      <stop offset=".11" stop-color="#151d3a" stop-opacity=".47"/>
      <stop offset=".17" stop-color="#253466" stop-opacity=".69"/>
      <stop offset=".22" stop-color="#3a509e" stop-opacity=".92"/>
      <stop offset=".24" stop-color="#415ab2"/>
      <stop offset=".32" stop-color="#415ab2"/>
      <stop offset=".36" stop-color="#415ab2"/>
      <stop offset=".38" stop-color="#415ab2"/>
      <stop offset=".43" stop-color="#415ab2"/>
      <stop offset=".6" stop-color="#e6a149"/>
      <stop offset=".67" stop-color="#efc04c"/>
      <stop offset=".74" stop-color="#f6d64e"/>
      <stop offset=".78" stop-color="#f8de4f"/>
      <stop offset=".85" stop-color="#f5b244"/>
      <stop offset=".91" stop-color="#f3913c"/>
      <stop offset=".96" stop-color="#f17d37"/>
      <stop offset="1" stop-color="#f17635"/>
    </linearGradient>
    <linearGradient id="linear-gradient-6" x1="66.05" y1="257.95" x2="484.04" y2="257.95" gradientTransform="translate(0 514) scale(1 -1)" gradientUnits="userSpaceOnUse">
      <stop offset="0" stop-color="#fbe850" stop-opacity="0"/>
      <stop offset=".17" stop-color="#fbe850" stop-opacity="0"/>
      <stop offset=".4" stop-color="#e6a149"/>
      <stop offset=".68" stop-color="#3655b9"/>
    </linearGradient>
    <linearGradient id="linear-gradient-7" x1="58.17" y1="69.11" x2="58.17" y2="318.26" gradientTransform="translate(0 514) scale(1 -1)" gradientUnits="userSpaceOnUse">
      <stop offset=".32" stop-color="#3655b9"/>
      <stop offset=".6" stop-color="#e6a149"/>
      <stop offset="1" stop-color="#fbe850"/>
    </linearGradient>
    <linearGradient id="linear-gradient-8" x1="57.79" y1="315.61" x2="57.79" y2="62.22" xlink:href="#linear-gradient-7"/>
    <linearGradient id="linear-gradient-9" x1="45.98" y1="393.52" x2="125.39" y2="337.03" gradientTransform="translate(0 514) scale(1 -1)" gradientUnits="userSpaceOnUse">
      <stop offset="0" stop-color="#f8de4f"/>
      <stop offset=".18" stop-color="#f6c549"/>
      <stop offset=".63" stop-color="#f28c3b"/>
      <stop offset=".85" stop-color="#f17635"/>
    </linearGradient>
    <linearGradient id="linear-gradient-10" x1="596.87" y1="353.8" x2="596.87" y2="214.09" xlink:href="#linear-gradient-9"/>
    <linearGradient id="linear-gradient-11" x1="1020.07" y1="355.79" x2="1020.07" y2="212.09" xlink:href="#linear-gradient-9"/>
    <linearGradient id="linear-gradient-12" x1="1488.92" y1="353.8" x2="1488.92" y2="214.09" xlink:href="#linear-gradient-9"/>
    <linearGradient id="linear-gradient-13" x1="1586.03" y1="353.8" x2="1586.03" y2="214.09" xlink:href="#linear-gradient-9"/>
  </defs>
  <path d="M435.77,512H76.48c-42.06,0-76.48-34.42-76.48-76.48V76.48C0,34.42,34.42,0,76.48,0h359.29c42.06,0,76.48,34.42,76.48,76.48v359.04c-.01,42.06-34.42,76.48-76.48,76.48Z"/>
  <g>
    <g>
      <path class="cls-14" d="M108.99,269.07l189.05,134.66,35.57-37.67-176.84-129.62c-6.87-6.3-25.01-13.42-47.64-15.42l-.14,48.05Z"/>
      <path class="cls-2" d="M109.07,269.02l23.93,16.65,23.8,16.69,47.38,33.46c15.73,11.2,31.42,22.42,47.04,33.75l23.46,16.98,23.54,16.91-.43.04c5.96-6.25,11.86-12.56,17.78-18.84l17.71-18.9.06.66-44.4-32.14-44.34-32.23-22.15-16.14-22.09-16.22c-14.73-10.81-29.46-21.62-44.13-32.52l-.04-.03-.04-.04c-3.03-2.7-6.75-4.71-10.54-6.43-3.81-1.72-7.77-3.13-11.8-4.32-4.03-1.18-8.12-2.18-12.25-2.96-4.13-.77-8.3-1.36-12.49-1.79l.64-.58-.3,23.94-.34,24.06ZM108.9,269.11l-.2-23.98-.15-24.11v-.64l.64.06c8.46.72,16.88,2.09,25.07,4.43,4.09,1.17,8.13,2.56,12.05,4.28,3.9,1.73,7.74,3.73,11.08,6.64l-.08-.06c14.81,10.71,29.55,21.5,44.29,32.29l22.12,16.18,22.06,16.26,44.08,32.58,44.02,32.67.4.3-.34.36-17.86,18.76c-5.94,6.27-11.9,12.52-17.79,18.83l-.19.21-.23-.17-23.72-16.76-23.8-16.68c-15.89-11.11-31.71-22.33-47.49-33.58l-47.15-33.87-23.46-16.98-23.35-17.02Z"/>
    </g>
    <g>
      <path class="cls-7" d="M160.77,122.35v45.55c0,14.16,6.9,24.56,18.37,32.98l174.27,130.8-4.93-71.63S164.95,124.15,160.77,122.35Z"/>
      <path class="cls-6" d="M160.83,122.44l.46,37.84c.05,3.12,0,6.25.13,9.36.15,3.1.66,6.19,1.58,9.14,1.81,5.94,5.34,11.22,9.72,15.6,2.19,2.2,4.6,4.18,7.12,6.04l7.58,5.66,15.17,11.32c10.12,7.53,20.16,15.17,30.24,22.76l30.11,22.93c10.03,7.66,20.06,15.31,30.14,22.89l15.11,11.4,15.16,11.33,30.38,22.57-.85.46-5.32-71.6.37.68-46.87-34.5-46.78-34.62-46.7-34.73-23.35-17.36-11.68-8.67-5.86-4.3-2.95-2.13-1.48-1.05-.75-.51-.38-.25c-.16-.11-.19-.15-.3-.26ZM160.72,122.27c.15.04.39.14.5.22l.39.24.76.5,1.51,1.02,3,2.06,5.96,4.17,11.88,8.41,23.63,16.99c15.74,11.35,31.39,22.81,47.08,34.23l46.88,34.5,46.72,34.71.34.26.03.42,4.54,71.66.07,1.17-.93-.7-30.16-22.87-15.11-11.39-15.16-11.32c-10.1-7.56-20.25-15.06-30.4-22.55l-30.43-22.51c-10.1-7.56-20.24-15.06-30.29-22.68l-15.1-11.4-7.55-5.7c-2.55-1.89-5.02-3.95-7.26-6.23-4.51-4.53-8.1-10.11-9.89-16.3-.91-3.08-1.39-6.28-1.5-9.47-.09-3.2.02-6.38.02-9.56l.47-37.88Z"/>
    </g>
    <g>
      <path class="cls-8" d="M80.7,419.06c20.05-10.19,34.62-13.02,52.13-4.64,33.34,13.61,67.98,47.42,138.76,47.42s124.24-55.76,122.15-119.24c-2.09-63.47,0-154.83,0-154.83,0-20.17,29.57-47.16,29.57-47.16l29.57,40.64,29.87-131.1-145.9,20.54,44.2,33.52c-48.08,33.52-54.65,60.51-54.36,78.9l.55,141.84c.05,12.74-2.1,25.57-7.77,36.99-8.67,17.49-25.53,35.42-58.18,33.84-34.35,1.19-90.49-38.56-124.54-35.89-26.06,1.41-44.5,13.94-52.64,22.84s-16.8,23.88-16.8,23.88l13.39,12.45Z"/>
      <path class="cls-13" d="M80.72,418.97c5.49-2.85,11.34-5.5,17.37-7.36,6.04-1.85,12.43-2.8,18.76-2.17,3.16.31,6.28.98,9.3,1.95,1.51.49,3,1.03,4.46,1.66.74.3,1.45.64,2.17.96l2.18.92c5.83,2.45,11.43,5.41,16.98,8.4,11.08,6.05,21.95,12.44,33.31,17.88,11.33,5.47,23.09,10.05,35.23,13.33,12.13,3.3,24.6,5.24,37.14,6.08,1.56.14,3.14.16,4.71.24,1.57.07,3.14.15,4.71.15l4.71.06c1.57-.03,3.14-.02,4.7-.1,6.26-.23,12.51-.92,18.67-2.06,12.32-2.27,24.3-6.4,35.38-12.25,11.08-5.84,21.24-13.41,29.98-22.38,8.74-8.96,16.07-19.3,21.51-30.57,5.47-11.26,8.98-23.46,10.34-35.9.33-3.11.54-6.24.61-9.36.07-3.13-.05-6.25-.13-9.42-.19-6.31-.3-12.62-.4-18.92-.17-12.62-.27-25.23-.25-37.85.01-25.23.31-50.46.78-75.68l.41-18.91c.03-3.21.76-6.37,1.81-9.37,1.06-3,2.44-5.87,3.99-8.64,3.12-5.52,6.9-10.63,10.94-15.49,4.06-4.85,8.38-9.46,13-13.79l.27-.25.22.3,29.57,40.63-.6.12,29.66-131.15.61.66-145.85,20.87.41-1.57,44.24,33.46,1.04.78-1.07.75c-5.98,4.18-11.8,8.6-17.35,13.32-5.55,4.72-10.85,9.74-15.67,15.18-4.82,5.43-9.18,11.29-12.66,17.63-3.48,6.33-6.08,13.16-7.28,20.26-.62,3.55-.9,7.15-.88,10.76l.05,10.98.08,21.97.15,43.95.15,43.95.08,21.97c.01,7.39-.68,14.81-2.4,22.03-.86,3.61-1.96,7.16-3.36,10.61-1.38,3.45-3.09,6.76-4.98,9.95-3.79,6.37-8.63,12.18-14.45,16.84-5.81,4.67-12.62,8.06-19.78,10.03-7.18,1.97-14.66,2.54-22.04,2.18h.07c-4.64.14-9.25-.42-13.75-1.31-4.51-.9-8.93-2.11-13.29-3.5-8.72-2.78-17.19-6.19-25.6-9.68-8.42-3.5-16.77-7.11-25.22-10.49-8.45-3.36-16.98-6.53-25.77-8.78-4.39-1.11-8.85-1.98-13.35-2.36-4.49-.4-9.02-.07-13.52.45-8.99,1.09-17.81,3.6-25.99,7.5-4.09,1.95-8.02,4.24-11.7,6.88s-7.13,5.62-10.07,9.07c-2.97,3.43-5.67,7.09-8.25,10.84s-5.03,7.58-7.35,11.49l-.03-.21,13.29,12.48ZM80.69,419.16l-13.49-12.43-.1-.09.07-.12c2.3-3.94,4.72-7.8,7.27-11.58,2.55-3.78,5.23-7.48,8.19-10.96,2.94-3.51,6.41-6.56,10.1-9.26,3.7-2.7,7.64-5.05,11.76-7.05,8.22-4.02,17.14-6.59,26.23-7.74,2.27-.3,4.55-.47,6.84-.6,2.29-.14,4.6-.09,6.89.09,4.58.36,9.1,1.22,13.54,2.32,8.88,2.23,17.47,5.38,25.95,8.71,8.48,3.34,16.86,6.93,25.28,10.38,8.42,3.44,16.88,6.8,25.53,9.52,4.33,1.35,8.7,2.54,13.13,3.4,4.43.85,8.93,1.37,13.39,1.22h.07c7.24.32,14.54-.28,21.5-2.22,6.95-1.94,13.5-5.25,19.1-9.79,5.6-4.53,10.27-10.18,13.93-16.4,3.71-6.22,6.39-12.99,8.04-20.03,1.67-7.04,2.34-14.31,2.32-21.56l-.09-21.97-.19-43.95-.19-43.95-.09-21.97-.03-11c-.01-3.71.28-7.45.94-11.11,1.26-7.35,3.96-14.4,7.55-20.89,3.59-6.5,8.04-12.46,12.96-17.97,4.91-5.52,10.28-10.59,15.9-15.34,5.62-4.76,11.49-9.2,17.52-13.39l-.03,1.53-44.16-33.57-1.68-1.28,2.09-.29,145.94-20.21.79-.11-.18.77-30.07,131.05-.17.72-.44-.6-29.56-40.64.49.05c-4.57,4.3-8.88,8.92-12.91,13.75-4.01,4.84-7.75,9.93-10.82,15.4-1.53,2.74-2.89,5.57-3.92,8.52s-1.72,6.02-1.74,9.13l-.3,18.92c-.33,25.22-.47,50.44-.34,75.66.05,12.61.22,25.22.47,37.82l.22,9.45.28,9.45c.09,3.14.21,6.32.15,9.5-.07,3.18-.27,6.35-.61,9.51-2.66,25.32-14.43,49.44-32.27,67.53-8.89,9.08-19.21,16.74-30.46,22.64-11.24,5.91-23.39,10.06-35.88,12.34-6.24,1.14-12.57,1.83-18.91,2.04-1.58.07-3.17.07-4.76.09l-4.75-.07c-1.58-.01-3.16-.08-4.74-.16-1.58-.09-3.16-.11-4.74-.26-12.63-.85-25.19-2.92-37.39-6.3-12.21-3.37-24.02-8.05-35.37-13.61-11.37-5.53-22.25-11.97-33.25-18.1-5.52-3.04-11.06-6.03-16.84-8.52l-2.17-.94c-.72-.33-1.43-.68-2.15-.98-1.43-.63-2.9-1.18-4.39-1.68-2.97-.99-6.04-1.67-9.16-2.01-6.24-.68-12.58.2-18.6,1.98-3.01.9-5.97,1.98-8.87,3.21-2.92,1.24-5.69,2.57-8.62,4Z"/>
    </g>
    <g>
      <path class="cls-10" d="M33.68,200.78v249.15l48.98-32.03v-196.65c-20.71-1.88-37.04-8.7-48.98-20.47Z"/>
      <path class="cls-9" d="M33.72,200.87c.1,20.99.26,41.95.48,62.86l.57,62.35.29,31.04.16,30.94.19,61.87-2.68-1.45,24.45-16.07,24.53-15.96-.79,1.45.25-98.33.33-49.16c.11-16.39.19-32.78.42-49.16l.67.74c-9.03-.95-18-2.87-26.42-6.3-4.2-1.71-8.25-3.8-12.05-6.28-1.9-1.23-3.72-2.58-5.49-4-.88-.71-1.72-1.47-2.58-2.21-.81-.75-1.53-1.53-2.33-2.33ZM33.64,200.69c.85.75,1.74,1.55,2.58,2.32.87.72,1.7,1.48,2.59,2.17,1.77,1.39,3.6,2.71,5.51,3.91,3.8,2.42,7.85,4.44,12.05,6.09,8.4,3.31,17.33,5.11,26.3,5.94h.11v.12l.07,196.65v.1l-.09.06-48.98,32.03-.29.19v-.35l.15-249.23Z"/>
    </g>
    <ellipse class="cls-11" cx="78.33" cy="143.49" rx="48.83" ry="48.5"/>
  </g>
  <g>
    <path class="cls-3" d="M561.95,202.71v97.2h-27.94v-139.71h33.53l64.26,97.8v-97.8h27.94v139.71h-33.93l-63.86-97.2Z"/>
    <path class="cls-5" d="M702.27,255.41c.8-2.4,2.06-4.56,3.78-6.49,1.73-1.93,3.86-3.59,6.38-4.98,2.53-1.4,5.4-2.5,8.59-3.29,3.2-.8,6.53-1.2,9.99-1.2h10.17c-.78-14.23-7.51-21.36-20.16-21.36-7.59,0-13.37,2.73-17.35,8.19-4,5.46-5.98,13.37-5.98,23.75s2.09,18.13,6.28,23.65c4.2,5.53,10.08,8.29,17.66,8.29,5.33,0,10-1.03,14.08-3.09,4.06-2.06,8.2-5.49,12.46-10.28l12.99,20.96c-6.4,4.26-12.75,7.39-19.06,9.38-6.33,2-13.15,2.99-20.46,2.99-7.86,0-14.97-1.23-21.36-3.69-6.38-2.46-11.84-5.95-16.37-10.48-4.51-4.52-8-9.98-10.48-16.36-2.46-6.38-3.69-13.51-3.69-21.36s1.27-14.57,3.8-20.96c2.53-6.38,6.06-11.88,10.57-16.46,4.53-4.59,9.91-8.15,16.17-10.68s13.17-3.79,20.76-3.79,14.13,1.46,20.06,4.38c5.91,2.93,10.84,6.99,14.77,12.18,3.93,5.18,6.66,11.28,8.19,18.26,1.53,6.99,1.56,14.47.09,22.46h-61.88v-.02Z"/>
    <path class="cls-5" d="M765.12,200.12h32.34l20.56,27.94,20.56-27.94h32.32l-36.73,49.9,36.73,49.9h-32.32l-73.46-99.8ZM798.84,254.21c6.4,7.59,9.59,15.23,9.59,22.95,0,5.33-1.6,10.11-4.78,14.37l-6.18,8.39h-32.34l33.71-45.71Z"/>
    <path class="cls-5" d="M892.87,170.18l25.94-5.98v85.82c0,10.91,1.71,18.96,5.09,24.15,3.4,5.19,8.68,7.79,15.86,7.79,3.07,0,6.09-.33,9.1-1,2.98-.66,6.6-1.73,10.88-3.19v19.96c-3.47,1.46-6.82,2.52-10.1,3.19-3.26.66-7.2.99-11.86.99-14.37,0-25.45-4.48-33.23-13.47-7.79-8.98-11.68-21.78-11.68-38.42v-33.93h-15.97v-9.99l15.97-3.79v-32.13ZM922.01,200.12h36.33v15.97h-13.57c-6.13,0-10.99-1.26-14.57-3.79-3.6-2.53-6.33-6.59-8.19-12.18Z"/>
    <path class="cls-12" d="M1001.63,195.53c0,4.27,1.69,7.62,5.09,10.08,3.38,2.46,7.64,4.67,12.77,6.59,5.11,1.93,10.64,3.89,16.57,5.88,5.91,1.99,11.44,4.66,16.55,7.99,5.13,3.33,9.39,7.61,12.77,12.87,3.4,5.26,5.09,12.08,5.09,20.46,0,5.99-1.16,11.58-3.49,16.77-2.33,5.18-5.71,9.68-10.17,13.47-4.46,3.79-9.91,6.79-16.37,8.98-6.46,2.2-13.81,3.29-22.05,3.29-8.93,0-17.37-1.43-25.36-4.28-7.99-2.87-15.77-7.02-23.36-12.48l13.97-20.36c6,5.18,11.79,9.01,17.37,11.48s11.37,3.69,17.37,3.69c6.38,0,11.66-1.7,15.86-5.09,4.18-3.39,6.28-7.61,6.28-12.67s-1.69-9.05-5.08-11.98c-3.4-2.93-7.66-5.42-12.79-7.49-5.11-2.06-10.64-4.06-16.55-5.98-5.93-1.93-11.44-4.42-16.57-7.49s-9.39-7.05-12.77-11.98c-3.4-4.92-5.09-11.38-5.09-19.35,0-5.99,1.2-11.41,3.6-16.27,2.38-4.86,5.78-9.04,10.17-12.57,4.4-3.53,9.64-6.22,15.77-8.09,6.11-1.86,12.9-2.79,20.36-2.79,8.66,0,16.5,1.23,23.56,3.69,7.04,2.46,14.17,6.42,21.36,11.87l-13.97,20.36c-9.71-9.31-20.03-13.97-30.94-13.97-6.26,0-11.15,1.33-14.66,3.99-3.52,2.66-5.29,6.46-5.29,11.38Z"/>
    <path class="cls-5" d="M1090.46,170.18l25.94-5.98v85.82c0,10.91,1.71,18.96,5.09,24.15,3.4,5.19,8.68,7.79,15.86,7.79,3.07,0,6.09-.33,9.1-1,2.98-.66,6.6-1.73,10.88-3.19v19.96c-3.47,1.46-6.82,2.52-10.1,3.19-3.26.66-7.2.99-11.86.99-14.37,0-25.45-4.48-33.23-13.47-7.79-8.98-11.68-21.78-11.68-38.42v-33.93h-15.97v-9.99l15.97-3.79v-32.13h0ZM1119.6,200.12h36.33v15.97h-13.57c-6.13,0-10.99-1.26-14.57-3.79-3.6-2.53-6.33-6.59-8.19-12.18Z"/>
    <path class="cls-5" d="M1162.29,250.02c0-7.59,1.27-14.57,3.8-20.96,2.53-6.38,6.09-11.88,10.68-16.46,4.58-4.59,10.08-8.15,16.46-10.68s13.37-3.79,20.96-3.79,14.57,1.26,20.96,3.79,11.88,6.08,16.46,10.68c4.6,4.58,8.15,10.08,10.68,16.46,2.53,6.38,3.8,13.37,3.8,20.96s-1.27,14.57-3.8,20.96c-2.53,6.38-6.08,11.88-10.68,16.47-4.58,4.58-10.08,8.15-16.46,10.68-6.38,2.52-13.37,3.78-20.96,3.78s-14.57-1.26-20.96-3.78c-6.39-2.53-11.88-6.09-16.46-10.68s-8.15-10.09-10.68-16.47c-2.52-6.39-3.8-13.38-3.8-20.96ZM1190.25,250.02c0,10.25,2.09,18.13,6.28,23.65,4.2,5.53,10.08,8.29,17.66,8.29s13.48-2.76,17.66-8.29c4.2-5.52,6.29-13.4,6.29-23.65s-2.09-18.13-6.29-23.65c-4.18-5.52-10.08-8.29-17.66-8.29s-13.46,2.76-17.66,8.29c-4.18,5.52-6.28,13.41-6.28,23.65Z"/>
    <path class="cls-5" d="M1309.38,299.12c.8-5.58,2.71-9.88,5.69-12.87,3-2.99,6.82-4.49,11.48-4.49,7.99,0,14.13-2.56,18.46-7.69,4.33-5.12,6.49-12.27,6.49-21.46,0-10.38-2.44-18.73-7.29-25.05-4.86-6.31-11.35-9.48-19.46-9.48-3.86,0-7.62.7-11.28,2.09-3.66,1.4-6.82,3.37-9.48,5.89v133.72h-25.94v-132.91c0-3.99-.04-7.42-.11-10.29-.05-2.86-.16-5.28-.29-7.29-.13-1.99-.33-3.69-.6-5.08-.27-1.4-.6-2.76-1-4.09h19.96c1.73,2.53,2.93,4.59,3.6,6.18,4.26-2.92,8.75-5.02,13.46-6.28,4.73-1.26,10.22-1.89,16.48-1.89,7.19,0,13.82,1.26,19.96,3.79,6.11,2.53,11.37,6.05,15.77,10.58,4.38,4.52,7.84,9.88,10.37,16.06s3.8,12.94,3.8,20.26-1.35,14.61-4,21.06c-2.66,6.46-6.35,12.05-11.08,16.77-4.71,4.72-10.31,8.41-16.75,11.08-6.46,2.66-13.41,3.98-20.86,3.98-6.39,0-12.17-.87-17.38-2.59Z"/>
    <path class="cls-5" d="M1381.44,288.74c0-3.59,1.31-6.69,3.89-9.28,2.6-2.6,5.69-3.89,9.3-3.89s6.68,1.29,9.28,3.89c2.58,2.59,3.89,5.68,3.89,9.28s-1.31,6.69-3.89,9.29c-2.6,2.59-5.69,3.88-9.28,3.88s-6.69-1.29-9.3-3.88c-2.58-2.61-3.89-5.7-3.89-9.29Z"/>
    <path class="cls-4" d="M1473.65,160.2h30.54l59.88,139.71h-30.54l-44.51-104.19-21.56,50.3h15.97c13.84,0,23.41,5.98,28.74,17.96h-52.5l-15.37,35.93h-30.52l59.87-139.71Z"/>
    <path class="cls-1" d="M1572.06,160.2h27.94v139.71h-27.94v-139.71Z"/>
  </g>
</svg>